<mxfile host="app.diagrams.net" modified="2023-09-29T11:50:06.076Z" agent="Mozilla/5.0 (Windows NT 10.0; Win64; x64) AppleWebKit/537.36 (KHTML, like Gecko) Chrome/116.0.0.0 Safari/537.36" etag="c3r_1xJMN-1ksUA8Etbd" version="21.8.0" type="device">
  <diagram name="Page-1" id="c7558073-3199-34d8-9f00-42111426c3f3">
    <mxGraphModel dx="3566" dy="1031" grid="1" gridSize="10" guides="1" tooltips="1" connect="1" arrows="1" fold="1" page="1" pageScale="1" pageWidth="826" pageHeight="1169" background="none" math="0" shadow="0">
      <root>
        <mxCell id="0" />
        <mxCell id="1" parent="0" />
        <mxCell id="9Z1iMj3iR68H2QyPOMwT-97" value="Вход на страницу авторизации" style="ellipse;whiteSpace=wrap;html=1;aspect=fixed;" vertex="1" parent="1">
          <mxGeometry x="-810" y="140" width="60" height="60" as="geometry" />
        </mxCell>
        <mxCell id="9Z1iMj3iR68H2QyPOMwT-98" value="Ввод&amp;nbsp; уч. данных" style="rounded=0;whiteSpace=wrap;html=1;" vertex="1" parent="1">
          <mxGeometry x="-1510" y="440" width="120" height="60" as="geometry" />
        </mxCell>
        <mxCell id="9Z1iMj3iR68H2QyPOMwT-99" value="" style="endArrow=classic;html=1;rounded=0;" edge="1" parent="1">
          <mxGeometry width="50" height="50" relative="1" as="geometry">
            <mxPoint x="-750" y="169.5" as="sourcePoint" />
            <mxPoint x="-630" y="170" as="targetPoint" />
          </mxGeometry>
        </mxCell>
        <mxCell id="9Z1iMj3iR68H2QyPOMwT-100" value="" style="endArrow=classic;html=1;rounded=0;entryX=0;entryY=0.5;entryDx=0;entryDy=0;exitX=1;exitY=0.5;exitDx=0;exitDy=0;" edge="1" parent="1" source="9Z1iMj3iR68H2QyPOMwT-98" target="9Z1iMj3iR68H2QyPOMwT-101">
          <mxGeometry width="50" height="50" relative="1" as="geometry">
            <mxPoint x="-1380" y="470" as="sourcePoint" />
            <mxPoint x="-1260" y="470" as="targetPoint" />
          </mxGeometry>
        </mxCell>
        <mxCell id="9Z1iMj3iR68H2QyPOMwT-101" value="Проверка уч. данных" style="rounded=0;whiteSpace=wrap;html=1;" vertex="1" parent="1">
          <mxGeometry x="-1250" y="440" width="120" height="60" as="geometry" />
        </mxCell>
        <mxCell id="9Z1iMj3iR68H2QyPOMwT-102" value="Требуется напоминание" style="rounded=0;whiteSpace=wrap;html=1;" vertex="1" parent="1">
          <mxGeometry x="-950" y="370" width="120" height="60" as="geometry" />
        </mxCell>
        <mxCell id="9Z1iMj3iR68H2QyPOMwT-103" value="" style="endArrow=classic;html=1;rounded=0;exitX=1;exitY=0.5;exitDx=0;exitDy=0;entryX=0;entryY=0.5;entryDx=0;entryDy=0;" edge="1" parent="1" source="9Z1iMj3iR68H2QyPOMwT-101" target="9Z1iMj3iR68H2QyPOMwT-102">
          <mxGeometry width="50" height="50" relative="1" as="geometry">
            <mxPoint x="-1040" y="680" as="sourcePoint" />
            <mxPoint x="-960" y="390" as="targetPoint" />
            <Array as="points">
              <mxPoint x="-1090" y="470" />
              <mxPoint x="-1090" y="400" />
            </Array>
          </mxGeometry>
        </mxCell>
        <mxCell id="9Z1iMj3iR68H2QyPOMwT-107" value="Тестирование" style="rounded=0;whiteSpace=wrap;html=1;" vertex="1" parent="1">
          <mxGeometry x="-990" y="500" width="120" height="60" as="geometry" />
        </mxCell>
        <mxCell id="9Z1iMj3iR68H2QyPOMwT-108" value="Дать новый пароль" style="rounded=0;whiteSpace=wrap;html=1;" vertex="1" parent="1">
          <mxGeometry x="-750" y="370" width="120" height="60" as="geometry" />
        </mxCell>
        <mxCell id="9Z1iMj3iR68H2QyPOMwT-109" value="" style="endArrow=classic;html=1;rounded=0;entryX=0;entryY=0.5;entryDx=0;entryDy=0;exitX=1;exitY=0.5;exitDx=0;exitDy=0;" edge="1" parent="1" source="9Z1iMj3iR68H2QyPOMwT-102" target="9Z1iMj3iR68H2QyPOMwT-108">
          <mxGeometry width="50" height="50" relative="1" as="geometry">
            <mxPoint x="-810" y="410" as="sourcePoint" />
            <mxPoint x="-810" y="490" as="targetPoint" />
          </mxGeometry>
        </mxCell>
        <mxCell id="9Z1iMj3iR68H2QyPOMwT-112" value="Сохранение результатов" style="rounded=0;whiteSpace=wrap;html=1;" vertex="1" parent="1">
          <mxGeometry x="-630" y="510" width="120" height="60" as="geometry" />
        </mxCell>
        <mxCell id="9Z1iMj3iR68H2QyPOMwT-114" value="Создать уч. запись" style="rounded=0;whiteSpace=wrap;html=1;" vertex="1" parent="1">
          <mxGeometry x="-1070" y="140" width="120" height="60" as="geometry" />
        </mxCell>
        <mxCell id="9Z1iMj3iR68H2QyPOMwT-115" value="" style="endArrow=classic;html=1;rounded=0;entryX=0;entryY=0.5;entryDx=0;entryDy=0;" edge="1" parent="1" target="9Z1iMj3iR68H2QyPOMwT-114">
          <mxGeometry width="50" height="50" relative="1" as="geometry">
            <mxPoint x="-1250" y="169.5" as="sourcePoint" />
            <mxPoint x="-1020" y="217.73223570190635" as="targetPoint" />
          </mxGeometry>
        </mxCell>
        <mxCell id="9Z1iMj3iR68H2QyPOMwT-117" value="Заполнить анкету" style="rounded=0;whiteSpace=wrap;html=1;" vertex="1" parent="1">
          <mxGeometry x="-1370" y="140" width="120" height="60" as="geometry" />
        </mxCell>
        <mxCell id="9Z1iMj3iR68H2QyPOMwT-118" value="" style="endArrow=classic;html=1;rounded=0;" edge="1" parent="1">
          <mxGeometry width="50" height="50" relative="1" as="geometry">
            <mxPoint x="-1490" y="169.5" as="sourcePoint" />
            <mxPoint x="-1370" y="169.5" as="targetPoint" />
          </mxGeometry>
        </mxCell>
        <mxCell id="9Z1iMj3iR68H2QyPOMwT-120" value="" style="endArrow=classic;html=1;rounded=0;" edge="1" parent="1">
          <mxGeometry width="50" height="50" relative="1" as="geometry">
            <mxPoint x="-950" y="169.5" as="sourcePoint" />
            <mxPoint x="-810" y="170" as="targetPoint" />
          </mxGeometry>
        </mxCell>
        <mxCell id="9Z1iMj3iR68H2QyPOMwT-121" value="" style="endArrow=classic;html=1;rounded=0;exitX=1;exitY=0.5;exitDx=0;exitDy=0;" edge="1" parent="1" source="9Z1iMj3iR68H2QyPOMwT-145">
          <mxGeometry width="50" height="50" relative="1" as="geometry">
            <mxPoint x="-951" y="430" as="sourcePoint" />
            <mxPoint x="-951" y="500" as="targetPoint" />
            <Array as="points">
              <mxPoint x="-951" y="455" />
            </Array>
          </mxGeometry>
        </mxCell>
        <mxCell id="9Z1iMj3iR68H2QyPOMwT-122" value="Вход на страницу статистики" style="ellipse;whiteSpace=wrap;html=1;aspect=fixed;" vertex="1" parent="1">
          <mxGeometry x="-473" y="510" width="60" height="60" as="geometry" />
        </mxCell>
        <mxCell id="9Z1iMj3iR68H2QyPOMwT-124" value="Вход на страницу автора" style="ellipse;whiteSpace=wrap;html=1;aspect=fixed;" vertex="1" parent="1">
          <mxGeometry x="-1550" y="140" width="60" height="60" as="geometry" />
        </mxCell>
        <mxCell id="9Z1iMj3iR68H2QyPOMwT-125" value="" style="endArrow=classic;html=1;rounded=0;entryX=0;entryY=0.5;entryDx=0;entryDy=0;" edge="1" parent="1" target="9Z1iMj3iR68H2QyPOMwT-128">
          <mxGeometry width="50" height="50" relative="1" as="geometry">
            <mxPoint x="-240" y="540" as="sourcePoint" />
            <mxPoint x="-187" y="539.5" as="targetPoint" />
          </mxGeometry>
        </mxCell>
        <mxCell id="9Z1iMj3iR68H2QyPOMwT-126" value="Просмотр перечня тестов" style="rounded=0;whiteSpace=wrap;html=1;" vertex="1" parent="1">
          <mxGeometry x="-360" y="510" width="120" height="60" as="geometry" />
        </mxCell>
        <mxCell id="9Z1iMj3iR68H2QyPOMwT-127" value="" style="endArrow=classic;html=1;rounded=0;" edge="1" parent="1">
          <mxGeometry width="50" height="50" relative="1" as="geometry">
            <mxPoint x="-513" y="539.5" as="sourcePoint" />
            <mxPoint x="-473" y="539.5" as="targetPoint" />
            <Array as="points" />
          </mxGeometry>
        </mxCell>
        <mxCell id="9Z1iMj3iR68H2QyPOMwT-128" value="Получение серфитиката" style="rounded=0;whiteSpace=wrap;html=1;" vertex="1" parent="1">
          <mxGeometry x="-180" y="510" width="120" height="60" as="geometry" />
        </mxCell>
        <mxCell id="9Z1iMj3iR68H2QyPOMwT-129" value="" style="endArrow=classic;html=1;rounded=0;" edge="1" parent="1">
          <mxGeometry width="50" height="50" relative="1" as="geometry">
            <mxPoint x="-413" y="540" as="sourcePoint" />
            <mxPoint x="-360" y="539.5" as="targetPoint" />
          </mxGeometry>
        </mxCell>
        <mxCell id="9Z1iMj3iR68H2QyPOMwT-130" value="Выход" style="ellipse;whiteSpace=wrap;html=1;aspect=fixed;" vertex="1" parent="1">
          <mxGeometry y="510" width="60" height="60" as="geometry" />
        </mxCell>
        <mxCell id="9Z1iMj3iR68H2QyPOMwT-132" value="" style="endArrow=classic;html=1;rounded=0;" edge="1" parent="1">
          <mxGeometry width="50" height="50" relative="1" as="geometry">
            <mxPoint x="-1316" y="60" as="sourcePoint" />
            <mxPoint x="-1316" y="140" as="targetPoint" />
          </mxGeometry>
        </mxCell>
        <mxCell id="9Z1iMj3iR68H2QyPOMwT-133" value="Форма" style="text;html=1;align=center;verticalAlign=middle;resizable=0;points=[];autosize=1;strokeColor=none;fillColor=none;" vertex="1" parent="1">
          <mxGeometry x="-1350" y="30" width="60" height="30" as="geometry" />
        </mxCell>
        <mxCell id="9Z1iMj3iR68H2QyPOMwT-135" value="пользователь" style="text;html=1;strokeColor=none;fillColor=none;align=center;verticalAlign=middle;whiteSpace=wrap;rounded=0;" vertex="1" parent="1">
          <mxGeometry x="-1340" y="250" width="60" height="30" as="geometry" />
        </mxCell>
        <mxCell id="9Z1iMj3iR68H2QyPOMwT-137" value="" style="endArrow=classic;html=1;rounded=0;" edge="1" parent="1">
          <mxGeometry width="50" height="50" relative="1" as="geometry">
            <mxPoint x="-1316" y="250" as="sourcePoint" />
            <mxPoint x="-1316" y="200" as="targetPoint" />
          </mxGeometry>
        </mxCell>
        <mxCell id="9Z1iMj3iR68H2QyPOMwT-138" value="данные пользователя" style="text;html=1;strokeColor=none;fillColor=none;align=center;verticalAlign=middle;whiteSpace=wrap;rounded=0;" vertex="1" parent="1">
          <mxGeometry x="-1210" y="130" width="60" height="30" as="geometry" />
        </mxCell>
        <mxCell id="9Z1iMj3iR68H2QyPOMwT-139" value="" style="endArrow=classic;html=1;rounded=0;entryX=0.5;entryY=0;entryDx=0;entryDy=0;exitX=0.5;exitY=1;exitDx=0;exitDy=0;" edge="1" parent="1" source="9Z1iMj3iR68H2QyPOMwT-140" target="9Z1iMj3iR68H2QyPOMwT-114">
          <mxGeometry width="50" height="50" relative="1" as="geometry">
            <mxPoint x="-1010" y="270" as="sourcePoint" />
            <mxPoint x="-630" y="390" as="targetPoint" />
          </mxGeometry>
        </mxCell>
        <mxCell id="9Z1iMj3iR68H2QyPOMwT-140" value="ПО" style="text;html=1;strokeColor=none;fillColor=none;align=center;verticalAlign=middle;whiteSpace=wrap;rounded=0;" vertex="1" parent="1">
          <mxGeometry x="-1040" y="30" width="60" height="30" as="geometry" />
        </mxCell>
        <mxCell id="9Z1iMj3iR68H2QyPOMwT-142" value="Нет" style="text;html=1;strokeColor=none;fillColor=none;align=center;verticalAlign=middle;whiteSpace=wrap;rounded=0;" vertex="1" parent="1">
          <mxGeometry x="-1090" y="370" width="60" height="30" as="geometry" />
        </mxCell>
        <mxCell id="9Z1iMj3iR68H2QyPOMwT-143" value="Да" style="text;html=1;strokeColor=none;fillColor=none;align=center;verticalAlign=middle;whiteSpace=wrap;rounded=0;" vertex="1" parent="1">
          <mxGeometry x="-1090" y="500" width="60" height="30" as="geometry" />
        </mxCell>
        <mxCell id="9Z1iMj3iR68H2QyPOMwT-145" value="Форма" style="text;html=1;strokeColor=none;fillColor=none;align=center;verticalAlign=middle;whiteSpace=wrap;rounded=0;" vertex="1" parent="1">
          <mxGeometry x="-1050" y="440" width="60" height="30" as="geometry" />
        </mxCell>
        <mxCell id="9Z1iMj3iR68H2QyPOMwT-147" value="" style="endArrow=classic;html=1;rounded=0;" edge="1" parent="1">
          <mxGeometry width="50" height="50" relative="1" as="geometry">
            <mxPoint x="-820" y="640" as="sourcePoint" />
            <mxPoint x="-940" y="560" as="targetPoint" />
            <Array as="points">
              <mxPoint x="-940" y="640" />
            </Array>
          </mxGeometry>
        </mxCell>
        <mxCell id="9Z1iMj3iR68H2QyPOMwT-148" value="пользователь" style="text;html=1;strokeColor=none;fillColor=none;align=center;verticalAlign=middle;whiteSpace=wrap;rounded=0;" vertex="1" parent="1">
          <mxGeometry x="-815" y="620" width="70" height="30" as="geometry" />
        </mxCell>
        <mxCell id="9Z1iMj3iR68H2QyPOMwT-149" value="ПО" style="text;html=1;strokeColor=none;fillColor=none;align=center;verticalAlign=middle;whiteSpace=wrap;rounded=0;" vertex="1" parent="1">
          <mxGeometry x="-610" y="430" width="60" height="30" as="geometry" />
        </mxCell>
        <mxCell id="9Z1iMj3iR68H2QyPOMwT-152" value="" style="endArrow=classic;html=1;rounded=0;exitX=1;exitY=0.5;exitDx=0;exitDy=0;" edge="1" parent="1" source="9Z1iMj3iR68H2QyPOMwT-101" target="9Z1iMj3iR68H2QyPOMwT-107">
          <mxGeometry width="50" height="50" relative="1" as="geometry">
            <mxPoint x="-1610" y="560" as="sourcePoint" />
            <mxPoint x="-1080" y="550" as="targetPoint" />
            <Array as="points">
              <mxPoint x="-1090" y="470" />
              <mxPoint x="-1090" y="530" />
            </Array>
          </mxGeometry>
        </mxCell>
        <mxCell id="9Z1iMj3iR68H2QyPOMwT-153" value="" style="endArrow=classic;html=1;rounded=0;exitX=0.5;exitY=1;exitDx=0;exitDy=0;entryX=0.5;entryY=1;entryDx=0;entryDy=0;" edge="1" parent="1" target="9Z1iMj3iR68H2QyPOMwT-98">
          <mxGeometry width="50" height="50" relative="1" as="geometry">
            <mxPoint x="-690" y="430" as="sourcePoint" />
            <mxPoint x="-1209.2399999999998" y="502.28" as="targetPoint" />
            <Array as="points">
              <mxPoint x="-690" y="590" />
              <mxPoint x="-1450" y="590" />
            </Array>
          </mxGeometry>
        </mxCell>
        <mxCell id="9Z1iMj3iR68H2QyPOMwT-154" value="&amp;nbsp;" style="text;html=1;align=center;verticalAlign=middle;resizable=0;points=[];autosize=1;strokeColor=none;fillColor=none;" vertex="1" parent="1">
          <mxGeometry x="-345" y="678" width="30" height="30" as="geometry" />
        </mxCell>
        <mxCell id="9Z1iMj3iR68H2QyPOMwT-155" value="" style="endArrow=classic;html=1;rounded=0;" edge="1" parent="1">
          <mxGeometry width="50" height="50" relative="1" as="geometry">
            <mxPoint x="-1620" y="470" as="sourcePoint" />
            <mxPoint x="-1510" y="470" as="targetPoint" />
          </mxGeometry>
        </mxCell>
        <mxCell id="9Z1iMj3iR68H2QyPOMwT-156" value="" style="endArrow=classic;html=1;rounded=0;entryX=-0.004;entryY=0.392;entryDx=0;entryDy=0;entryPerimeter=0;" edge="1" parent="1" target="9Z1iMj3iR68H2QyPOMwT-112">
          <mxGeometry width="50" height="50" relative="1" as="geometry">
            <mxPoint x="-870" y="530" as="sourcePoint" />
            <mxPoint x="-770" y="530" as="targetPoint" />
          </mxGeometry>
        </mxCell>
        <mxCell id="9Z1iMj3iR68H2QyPOMwT-160" value="" style="endArrow=classic;html=1;rounded=0;" edge="1" parent="1">
          <mxGeometry width="50" height="50" relative="1" as="geometry">
            <mxPoint x="-580" y="460" as="sourcePoint" />
            <mxPoint x="-580" y="510" as="targetPoint" />
          </mxGeometry>
        </mxCell>
        <mxCell id="9Z1iMj3iR68H2QyPOMwT-161" value="" style="endArrow=classic;html=1;rounded=0;" edge="1" parent="1">
          <mxGeometry width="50" height="50" relative="1" as="geometry">
            <mxPoint x="-60" y="539.5" as="sourcePoint" />
            <mxPoint y="539.5" as="targetPoint" />
          </mxGeometry>
        </mxCell>
        <mxCell id="9Z1iMj3iR68H2QyPOMwT-169" value="" style="edgeStyle=orthogonalEdgeStyle;rounded=0;orthogonalLoop=1;jettySize=auto;html=1;" edge="1" parent="1" source="9Z1iMj3iR68H2QyPOMwT-162" target="9Z1iMj3iR68H2QyPOMwT-164">
          <mxGeometry relative="1" as="geometry" />
        </mxCell>
        <mxCell id="9Z1iMj3iR68H2QyPOMwT-162" value="Админ" style="ellipse;whiteSpace=wrap;html=1;aspect=fixed;" vertex="1" parent="1">
          <mxGeometry x="-1560" y="820" width="80" height="80" as="geometry" />
        </mxCell>
        <mxCell id="9Z1iMj3iR68H2QyPOMwT-163" value="Страница создания модели профессии" style="ellipse;whiteSpace=wrap;html=1;aspect=fixed;" vertex="1" parent="1">
          <mxGeometry x="-1380" y="950" width="60" height="60" as="geometry" />
        </mxCell>
        <mxCell id="9Z1iMj3iR68H2QyPOMwT-164" value="Страница&lt;br&gt;создания навыков и вопросов" style="ellipse;whiteSpace=wrap;html=1;aspect=fixed;" vertex="1" parent="1">
          <mxGeometry x="-1380" y="830" width="60" height="60" as="geometry" />
        </mxCell>
        <mxCell id="9Z1iMj3iR68H2QyPOMwT-165" value="Страница создания профессии" style="ellipse;whiteSpace=wrap;html=1;aspect=fixed;" vertex="1" parent="1">
          <mxGeometry x="-1380" y="720" width="60" height="60" as="geometry" />
        </mxCell>
        <mxCell id="9Z1iMj3iR68H2QyPOMwT-167" value="" style="endArrow=classic;html=1;rounded=0;entryX=-0.008;entryY=0.225;entryDx=0;entryDy=0;entryPerimeter=0;" edge="1" parent="1" target="9Z1iMj3iR68H2QyPOMwT-163">
          <mxGeometry width="50" height="50" relative="1" as="geometry">
            <mxPoint x="-1510" y="900" as="sourcePoint" />
            <mxPoint x="-1430" y="950" as="targetPoint" />
          </mxGeometry>
        </mxCell>
        <mxCell id="9Z1iMj3iR68H2QyPOMwT-171" value="" style="endArrow=classic;html=1;rounded=0;entryX=0;entryY=0.5;entryDx=0;entryDy=0;" edge="1" parent="1" target="9Z1iMj3iR68H2QyPOMwT-165">
          <mxGeometry width="50" height="50" relative="1" as="geometry">
            <mxPoint x="-1510" y="820" as="sourcePoint" />
            <mxPoint x="-1460" y="770" as="targetPoint" />
          </mxGeometry>
        </mxCell>
        <mxCell id="9Z1iMj3iR68H2QyPOMwT-172" value="Ввод&amp;nbsp;&lt;br style=&quot;border-color: var(--border-color);&quot;&gt;названия&lt;br style=&quot;border-color: var(--border-color);&quot;&gt;профессии" style="rounded=0;whiteSpace=wrap;html=1;" vertex="1" parent="1">
          <mxGeometry x="-1200" y="720" width="120" height="60" as="geometry" />
        </mxCell>
        <mxCell id="9Z1iMj3iR68H2QyPOMwT-173" value="" style="endArrow=classic;html=1;rounded=0;entryX=0;entryY=0.5;entryDx=0;entryDy=0;" edge="1" parent="1" target="9Z1iMj3iR68H2QyPOMwT-172">
          <mxGeometry width="50" height="50" relative="1" as="geometry">
            <mxPoint x="-1320" y="750" as="sourcePoint" />
            <mxPoint x="-1270" y="700" as="targetPoint" />
          </mxGeometry>
        </mxCell>
        <mxCell id="9Z1iMj3iR68H2QyPOMwT-174" value="" style="endArrow=classic;html=1;rounded=0;" edge="1" parent="1">
          <mxGeometry width="50" height="50" relative="1" as="geometry">
            <mxPoint x="-1320" y="859.5" as="sourcePoint" />
            <mxPoint x="-1180" y="860" as="targetPoint" />
          </mxGeometry>
        </mxCell>
        <mxCell id="9Z1iMj3iR68H2QyPOMwT-175" value="Ввод названия навыка" style="rounded=0;whiteSpace=wrap;html=1;" vertex="1" parent="1">
          <mxGeometry x="-1200" y="830" width="120" height="60" as="geometry" />
        </mxCell>
        <mxCell id="9Z1iMj3iR68H2QyPOMwT-176" value="" style="endArrow=classic;html=1;rounded=0;" edge="1" parent="1" target="9Z1iMj3iR68H2QyPOMwT-177">
          <mxGeometry width="50" height="50" relative="1" as="geometry">
            <mxPoint x="-1320" y="979.5" as="sourcePoint" />
            <mxPoint x="-1180" y="979.5" as="targetPoint" />
          </mxGeometry>
        </mxCell>
        <mxCell id="9Z1iMj3iR68H2QyPOMwT-177" value="Выбор профессии" style="rounded=0;whiteSpace=wrap;html=1;" vertex="1" parent="1">
          <mxGeometry x="-1200" y="950" width="120" height="60" as="geometry" />
        </mxCell>
        <mxCell id="9Z1iMj3iR68H2QyPOMwT-179" value="Вход на страницу&lt;br&gt;редакти-рования" style="ellipse;whiteSpace=wrap;html=1;aspect=fixed;" vertex="1" parent="1">
          <mxGeometry x="-1370" y="1050" width="60" height="60" as="geometry" />
        </mxCell>
        <mxCell id="9Z1iMj3iR68H2QyPOMwT-180" value="" style="endArrow=classic;html=1;rounded=0;entryX=0;entryY=0.5;entryDx=0;entryDy=0;" edge="1" parent="1" target="9Z1iMj3iR68H2QyPOMwT-179">
          <mxGeometry width="50" height="50" relative="1" as="geometry">
            <mxPoint x="-1530" y="900" as="sourcePoint" />
            <mxPoint x="-1480" y="850" as="targetPoint" />
          </mxGeometry>
        </mxCell>
        <mxCell id="9Z1iMj3iR68H2QyPOMwT-182" value="Редактирование" style="rounded=0;whiteSpace=wrap;html=1;" vertex="1" parent="1">
          <mxGeometry x="-1200" y="1050" width="120" height="60" as="geometry" />
        </mxCell>
        <mxCell id="9Z1iMj3iR68H2QyPOMwT-184" value="" style="endArrow=classic;html=1;rounded=0;" edge="1" parent="1">
          <mxGeometry width="50" height="50" relative="1" as="geometry">
            <mxPoint x="-1310" y="1079.5" as="sourcePoint" />
            <mxPoint x="-1200" y="1079.5" as="targetPoint" />
          </mxGeometry>
        </mxCell>
        <mxCell id="9Z1iMj3iR68H2QyPOMwT-185" value="Сохранить" style="rounded=0;whiteSpace=wrap;html=1;" vertex="1" parent="1">
          <mxGeometry x="-800" y="950" width="120" height="60" as="geometry" />
        </mxCell>
        <mxCell id="9Z1iMj3iR68H2QyPOMwT-186" value="Сохранить" style="rounded=0;whiteSpace=wrap;html=1;" vertex="1" parent="1">
          <mxGeometry x="-990" y="1050" width="120" height="60" as="geometry" />
        </mxCell>
        <mxCell id="9Z1iMj3iR68H2QyPOMwT-187" value="Заполнение баллов навыков" style="rounded=0;whiteSpace=wrap;html=1;" vertex="1" parent="1">
          <mxGeometry x="-990" y="950" width="120" height="60" as="geometry" />
        </mxCell>
        <mxCell id="9Z1iMj3iR68H2QyPOMwT-189" value="&#xa;&lt;span style=&quot;color: rgb(0, 0, 0); font-family: Helvetica; font-size: 12px; font-style: normal; font-variant-ligatures: normal; font-variant-caps: normal; font-weight: 400; letter-spacing: normal; orphans: 2; text-align: center; text-indent: 0px; text-transform: none; widows: 2; word-spacing: 0px; -webkit-text-stroke-width: 0px; background-color: rgb(251, 251, 251); text-decoration-thickness: initial; text-decoration-style: initial; text-decoration-color: initial; float: none; display: inline !important;&quot;&gt;Сохранить&lt;/span&gt;&#xa;&#xa;" style="rounded=0;whiteSpace=wrap;html=1;" vertex="1" parent="1">
          <mxGeometry x="-990" y="720" width="120" height="60" as="geometry" />
        </mxCell>
        <mxCell id="9Z1iMj3iR68H2QyPOMwT-190" value="" style="endArrow=classic;html=1;rounded=0;entryX=0;entryY=0.5;entryDx=0;entryDy=0;" edge="1" parent="1" target="9Z1iMj3iR68H2QyPOMwT-189">
          <mxGeometry width="50" height="50" relative="1" as="geometry">
            <mxPoint x="-1080" y="750" as="sourcePoint" />
            <mxPoint x="-1030" y="700" as="targetPoint" />
          </mxGeometry>
        </mxCell>
        <mxCell id="9Z1iMj3iR68H2QyPOMwT-191" value="" style="endArrow=classic;html=1;rounded=0;entryX=0;entryY=0.5;entryDx=0;entryDy=0;" edge="1" parent="1" target="9Z1iMj3iR68H2QyPOMwT-186">
          <mxGeometry width="50" height="50" relative="1" as="geometry">
            <mxPoint x="-1080" y="1080" as="sourcePoint" />
            <mxPoint x="-1030" y="1030" as="targetPoint" />
          </mxGeometry>
        </mxCell>
        <mxCell id="9Z1iMj3iR68H2QyPOMwT-193" value="" style="endArrow=classic;html=1;rounded=0;entryX=0;entryY=0.5;entryDx=0;entryDy=0;" edge="1" parent="1" target="9Z1iMj3iR68H2QyPOMwT-187">
          <mxGeometry width="50" height="50" relative="1" as="geometry">
            <mxPoint x="-1080" y="980" as="sourcePoint" />
            <mxPoint x="-1030" y="930" as="targetPoint" />
          </mxGeometry>
        </mxCell>
        <mxCell id="9Z1iMj3iR68H2QyPOMwT-194" value="" style="endArrow=classic;html=1;rounded=0;" edge="1" parent="1">
          <mxGeometry width="50" height="50" relative="1" as="geometry">
            <mxPoint x="-1080" y="860" as="sourcePoint" />
            <mxPoint x="-1010" y="860" as="targetPoint" />
          </mxGeometry>
        </mxCell>
        <mxCell id="9Z1iMj3iR68H2QyPOMwT-195" value="" style="endArrow=classic;html=1;rounded=0;exitX=1;exitY=0.5;exitDx=0;exitDy=0;entryX=0;entryY=0.5;entryDx=0;entryDy=0;" edge="1" parent="1" source="9Z1iMj3iR68H2QyPOMwT-187" target="9Z1iMj3iR68H2QyPOMwT-185">
          <mxGeometry width="50" height="50" relative="1" as="geometry">
            <mxPoint x="-820" y="1010" as="sourcePoint" />
            <mxPoint x="-770" y="960" as="targetPoint" />
          </mxGeometry>
        </mxCell>
        <mxCell id="9Z1iMj3iR68H2QyPOMwT-196" value="" style="endArrow=classic;html=1;rounded=0;" edge="1" parent="1">
          <mxGeometry width="50" height="50" relative="1" as="geometry">
            <mxPoint x="-710" y="860" as="sourcePoint" />
            <mxPoint x="-590" y="800" as="targetPoint" />
            <Array as="points">
              <mxPoint x="-660" y="860" />
              <mxPoint x="-590" y="860" />
            </Array>
          </mxGeometry>
        </mxCell>
        <mxCell id="9Z1iMj3iR68H2QyPOMwT-197" value="Сохранить" style="rounded=0;whiteSpace=wrap;html=1;" vertex="1" parent="1">
          <mxGeometry x="-1010" y="830" width="120" height="60" as="geometry" />
        </mxCell>
        <mxCell id="9Z1iMj3iR68H2QyPOMwT-199" value="" style="endArrow=classic;html=1;rounded=0;" edge="1" parent="1">
          <mxGeometry width="50" height="50" relative="1" as="geometry">
            <mxPoint x="-890" y="860" as="sourcePoint" />
            <mxPoint x="-830" y="860" as="targetPoint" />
          </mxGeometry>
        </mxCell>
        <mxCell id="9Z1iMj3iR68H2QyPOMwT-200" value="Ввод вопроса" style="rounded=0;whiteSpace=wrap;html=1;" vertex="1" parent="1">
          <mxGeometry x="-830" y="830" width="120" height="60" as="geometry" />
        </mxCell>
        <mxCell id="9Z1iMj3iR68H2QyPOMwT-201" value="Сохранить" style="rounded=0;whiteSpace=wrap;html=1;" vertex="1" parent="1">
          <mxGeometry x="-650" y="740" width="120" height="60" as="geometry" />
        </mxCell>
        <mxCell id="9Z1iMj3iR68H2QyPOMwT-202" value="" style="endArrow=classic;html=1;rounded=0;" edge="1" parent="1">
          <mxGeometry width="50" height="50" relative="1" as="geometry">
            <mxPoint x="-530" y="770" as="sourcePoint" />
            <mxPoint x="-530" y="770" as="targetPoint" />
          </mxGeometry>
        </mxCell>
        <mxCell id="9Z1iMj3iR68H2QyPOMwT-204" value="Всё?" style="rounded=0;whiteSpace=wrap;html=1;" vertex="1" parent="1">
          <mxGeometry x="-480" y="740" width="120" height="60" as="geometry" />
        </mxCell>
        <mxCell id="9Z1iMj3iR68H2QyPOMwT-205" value="" style="endArrow=classic;html=1;rounded=0;entryX=0;entryY=0.5;entryDx=0;entryDy=0;exitX=1;exitY=0.5;exitDx=0;exitDy=0;" edge="1" parent="1" source="9Z1iMj3iR68H2QyPOMwT-201" target="9Z1iMj3iR68H2QyPOMwT-204">
          <mxGeometry width="50" height="50" relative="1" as="geometry">
            <mxPoint x="-530" y="775" as="sourcePoint" />
            <mxPoint x="-480" y="725" as="targetPoint" />
          </mxGeometry>
        </mxCell>
        <mxCell id="9Z1iMj3iR68H2QyPOMwT-206" value="" style="endArrow=classic;html=1;rounded=0;" edge="1" parent="1">
          <mxGeometry width="50" height="50" relative="1" as="geometry">
            <mxPoint x="-360" y="770" as="sourcePoint" />
            <mxPoint x="-310" y="770" as="targetPoint" />
          </mxGeometry>
        </mxCell>
        <mxCell id="9Z1iMj3iR68H2QyPOMwT-207" value="Да" style="text;html=1;align=center;verticalAlign=middle;resizable=0;points=[];autosize=1;strokeColor=none;fillColor=none;" vertex="1" parent="1">
          <mxGeometry x="-360" y="740" width="40" height="30" as="geometry" />
        </mxCell>
        <mxCell id="9Z1iMj3iR68H2QyPOMwT-208" value="" style="endArrow=classic;html=1;rounded=0;entryX=0.569;entryY=1.079;entryDx=0;entryDy=0;entryPerimeter=0;" edge="1" parent="1" target="9Z1iMj3iR68H2QyPOMwT-200">
          <mxGeometry width="50" height="50" relative="1" as="geometry">
            <mxPoint x="-420" y="800" as="sourcePoint" />
            <mxPoint x="-650" y="890" as="targetPoint" />
            <Array as="points">
              <mxPoint x="-420" y="920" />
              <mxPoint x="-760" y="920" />
            </Array>
          </mxGeometry>
        </mxCell>
        <mxCell id="9Z1iMj3iR68H2QyPOMwT-209" value="Вход на страницу" style="ellipse;whiteSpace=wrap;html=1;aspect=fixed;" vertex="1" parent="1">
          <mxGeometry x="-1550" y="1180" width="60" height="60" as="geometry" />
        </mxCell>
        <mxCell id="9Z1iMj3iR68H2QyPOMwT-210" value="" style="endArrow=classic;html=1;rounded=0;" edge="1" parent="1" target="9Z1iMj3iR68H2QyPOMwT-211">
          <mxGeometry width="50" height="50" relative="1" as="geometry">
            <mxPoint x="-1490" y="1209.5" as="sourcePoint" />
            <mxPoint x="-1350" y="1209.5" as="targetPoint" />
          </mxGeometry>
        </mxCell>
        <mxCell id="9Z1iMj3iR68H2QyPOMwT-211" value="Подготовка файла" style="rounded=0;whiteSpace=wrap;html=1;" vertex="1" parent="1">
          <mxGeometry x="-1370" y="1180" width="120" height="60" as="geometry" />
        </mxCell>
        <mxCell id="9Z1iMj3iR68H2QyPOMwT-212" value="Сохранить" style="rounded=0;whiteSpace=wrap;html=1;" vertex="1" parent="1">
          <mxGeometry x="-970" y="1180" width="120" height="60" as="geometry" />
        </mxCell>
        <mxCell id="9Z1iMj3iR68H2QyPOMwT-213" value="Выбор сертификата" style="rounded=0;whiteSpace=wrap;html=1;" vertex="1" parent="1">
          <mxGeometry x="-1160" y="1180" width="120" height="60" as="geometry" />
        </mxCell>
        <mxCell id="9Z1iMj3iR68H2QyPOMwT-214" value="" style="endArrow=classic;html=1;rounded=0;entryX=0;entryY=0.5;entryDx=0;entryDy=0;" edge="1" parent="1" target="9Z1iMj3iR68H2QyPOMwT-213">
          <mxGeometry width="50" height="50" relative="1" as="geometry">
            <mxPoint x="-1250" y="1210" as="sourcePoint" />
            <mxPoint x="-1200" y="1160" as="targetPoint" />
          </mxGeometry>
        </mxCell>
        <mxCell id="9Z1iMj3iR68H2QyPOMwT-215" value="" style="endArrow=classic;html=1;rounded=0;exitX=1;exitY=0.5;exitDx=0;exitDy=0;entryX=0;entryY=0.5;entryDx=0;entryDy=0;" edge="1" parent="1" source="9Z1iMj3iR68H2QyPOMwT-213" target="9Z1iMj3iR68H2QyPOMwT-212">
          <mxGeometry width="50" height="50" relative="1" as="geometry">
            <mxPoint x="-990" y="1240" as="sourcePoint" />
            <mxPoint x="-940" y="1190" as="targetPoint" />
          </mxGeometry>
        </mxCell>
        <mxCell id="9Z1iMj3iR68H2QyPOMwT-216" value="" style="endArrow=classic;html=1;rounded=0;exitX=1;exitY=0.5;exitDx=0;exitDy=0;" edge="1" parent="1" source="9Z1iMj3iR68H2QyPOMwT-212" target="9Z1iMj3iR68H2QyPOMwT-217">
          <mxGeometry width="50" height="50" relative="1" as="geometry">
            <mxPoint x="-820" y="1010" as="sourcePoint" />
            <mxPoint x="-760" y="1210" as="targetPoint" />
          </mxGeometry>
        </mxCell>
        <mxCell id="9Z1iMj3iR68H2QyPOMwT-217" value="Конец" style="ellipse;whiteSpace=wrap;html=1;aspect=fixed;" vertex="1" parent="1">
          <mxGeometry x="-760" y="1175" width="70" height="70" as="geometry" />
        </mxCell>
        <mxCell id="9Z1iMj3iR68H2QyPOMwT-225" value="" style="endArrow=classic;html=1;rounded=0;exitX=1;exitY=0.5;exitDx=0;exitDy=0;" edge="1" parent="1" target="9Z1iMj3iR68H2QyPOMwT-226">
          <mxGeometry width="50" height="50" relative="1" as="geometry">
            <mxPoint x="-870" y="1080" as="sourcePoint" />
            <mxPoint x="-780" y="1080" as="targetPoint" />
          </mxGeometry>
        </mxCell>
        <mxCell id="9Z1iMj3iR68H2QyPOMwT-226" value="Конец" style="ellipse;whiteSpace=wrap;html=1;aspect=fixed;" vertex="1" parent="1">
          <mxGeometry x="-810" y="1045" width="70" height="70" as="geometry" />
        </mxCell>
        <mxCell id="9Z1iMj3iR68H2QyPOMwT-227" value="" style="endArrow=classic;html=1;rounded=0;exitX=1;exitY=0.5;exitDx=0;exitDy=0;" edge="1" parent="1" target="9Z1iMj3iR68H2QyPOMwT-228">
          <mxGeometry width="50" height="50" relative="1" as="geometry">
            <mxPoint x="-680" y="980" as="sourcePoint" />
            <mxPoint x="-590" y="980" as="targetPoint" />
          </mxGeometry>
        </mxCell>
        <mxCell id="9Z1iMj3iR68H2QyPOMwT-228" value="Конец" style="ellipse;whiteSpace=wrap;html=1;aspect=fixed;" vertex="1" parent="1">
          <mxGeometry x="-620" y="945" width="70" height="70" as="geometry" />
        </mxCell>
        <mxCell id="9Z1iMj3iR68H2QyPOMwT-229" value="" style="endArrow=classic;html=1;rounded=0;exitX=1;exitY=0.5;exitDx=0;exitDy=0;" edge="1" parent="1" target="9Z1iMj3iR68H2QyPOMwT-230">
          <mxGeometry width="50" height="50" relative="1" as="geometry">
            <mxPoint x="-870" y="750" as="sourcePoint" />
            <mxPoint x="-780" y="750" as="targetPoint" />
          </mxGeometry>
        </mxCell>
        <mxCell id="9Z1iMj3iR68H2QyPOMwT-230" value="Конец" style="ellipse;whiteSpace=wrap;html=1;aspect=fixed;" vertex="1" parent="1">
          <mxGeometry x="-810" y="715" width="70" height="70" as="geometry" />
        </mxCell>
        <mxCell id="9Z1iMj3iR68H2QyPOMwT-231" value="Конец" style="ellipse;whiteSpace=wrap;html=1;aspect=fixed;" vertex="1" parent="1">
          <mxGeometry x="-310" y="740" width="70" height="70" as="geometry" />
        </mxCell>
      </root>
    </mxGraphModel>
  </diagram>
</mxfile>
